<?xml version="1.0" encoding="utf-8"?>
<!-- Generator: Adobe Illustrator 26.3.0, SVG Export Plug-In . SVG Version: 6.00 Build 0)  -->
<svg version="1.1" id="Capa_1" xmlns="http://www.w3.org/2000/svg" xmlns:xlink="http://www.w3.org/1999/xlink" x="0px" y="0px"
	 viewBox="0 0 512 512" style="enable-background:new 0 0 512 512;" xml:space="preserve">
<style type="text/css">
	.st0{fill:#1D71B8;}
	.st1{fill:#F39200;}
</style>
<path class="st0" d="M265.48,500.96c-15.54-14.77-30.35-28.84-45.68-43.41c-4.14-3.93-4.14-10.53-0.01-14.47
	c33.15-31.61,65.04-62.54,97.69-92.66c44.52-41.07,44.94-40.85,0.37-82.3c-19.5-18.14-39.09-36.26-59.55-53.27
	c-13.42-11.16-14.68-20.98-1.72-32.8c12.11-11.04,24.02-22.3,36.85-34.33c3.81-3.57,9.74-3.6,13.58-0.07
	c38.41,35.27,76.3,70.04,114.13,104.88c11.27,10.38,22.72,20.61,33.36,31.61c15.51,16.03,16.25,34.4,0.65,49.4
	c-57.78,55.55-116.07,110.58-175.91,167.42C275.38,504.62,269.33,504.62,265.48,500.96z"/>
<path class="st1" d="M244.88,10.19c12.33,13.01,24.08,25.4,35.28,37.21c4.51,4.76,4.58,12.2,0.15,17.04
	c-13.05,14.23-26.27,28.99-40.31,42.93c-24.6,24.42-49.92,48.12-75.21,71.84c-13.58,12.74-13.69,24.85-0.04,37.38
	c27.49,25.25,54.4,51.16,82.59,75.6c14.11,12.24,15.01,21.97,0.79,33.99c-9.66,8.17-19.01,16.83-27.55,26.15
	c-9.58,10.46-16.9,8.64-26.57-0.48c-44.62-42.07-89.89-83.44-134.78-125.23c-20.99-19.54-22.39-35.77-2.97-54.46
	C112.94,117.62,170.23,63.68,227.34,9.57c0.02-0.02,0.05-0.04,0.07-0.07C232.37,4.87,240.2,5.26,244.88,10.19z"/>
</svg>
