<?xml version="1.0" encoding="utf-8"?>
<!-- Generator: Adobe Illustrator 26.3.0, SVG Export Plug-In . SVG Version: 6.00 Build 0)  -->
<svg version="1.1" id="Capa_1" xmlns="http://www.w3.org/2000/svg" xmlns:xlink="http://www.w3.org/1999/xlink" x="0px" y="0px"
	 viewBox="0 0 512 512" style="enable-background:new 0 0 512 512;" xml:space="preserve">
<style type="text/css">
	.st0{fill:#00B293;}
	.st1{fill:#FFFFFF;}
</style>
<circle class="st0" cx="256.5" cy="256.25" r="250.42"/>
<path class="st1" d="M204.75,302.99c1.67,10.85,5.01,19.2,9.18,25.04c8.35,10.02,22.54,15.02,43.41,15.02
	c12.52,0,21.7-1.67,30.05-4.17c14.19-5.01,21.7-14.19,21.7-28.38c0-8.35-3.34-14.19-10.85-18.36c-6.68-4.17-18.36-8.35-33.39-11.69
	l-25.88-5.84c-25.88-5.84-43.41-11.69-53.42-18.36c-16.69-10.85-24.21-28.38-24.21-52.59c0-21.7,8.35-40.07,24.21-54.26
	c15.86-14.19,39.23-21.7,70.12-21.7c25.88,0,47.58,6.68,65.94,20.03c18.36,13.36,27.55,33.39,28.38,59.27h-48.41
	c-0.83-14.19-7.51-25.04-19.2-30.88c-8.35-4.17-18.36-5.84-30.05-5.84c-13.36,0-24.21,2.5-31.72,7.51
	c-7.51,5.01-11.69,12.52-11.69,21.7c0,8.35,4.17,15.02,11.69,19.2c5.01,2.5,15.86,5.84,32.55,10.02l42.57,10.02
	c18.36,4.17,32.55,10.02,41.74,17.53c14.19,11.69,21.7,27.55,21.7,49.25c0,22.54-8.35,40.9-25.88,55.09
	c-16.69,15.02-40.9,21.7-72.62,21.7s-56.76-7.51-75.12-21.7c-20.03-12.52-29.22-32.55-29.22-57.6L204.75,302.99z"/>
</svg>
